<svg xmlns="http://www.w3.org/2000/svg" xmlns:xlink="http://www.w3.org/1999/xlink" viewBox="0 0 95.481 47.19941063175279" height="47.19941063175279" width="95.481" data-background-color="#ffffff" preserveAspectRatio="xMidYMid meet" id="tight-bounds"><g><svg viewBox="0 0 95.481 47.19941063175279" height="47.19941063175279" width="95.481"><g><svg viewBox="0 0 95.481 47.19941063175279" height="47.19941063175279" width="95.481"><g id="textblocktransform"><svg viewBox="0 0 95.481 47.19941063175279" height="47.19941063175279" width="95.481" id="textblock"><g><svg viewBox="0 0 95.481 47.19941063175279" height="47.19941063175279" width="95.481"><g><svg viewBox="0 0 95.481 47.19941063175279" height="47.19941063175279" width="95.481"><g><svg xmlns="http://www.w3.org/2000/svg" xmlns:xlink="http://www.w3.org/1999/xlink" version="1.1" x="0" y="0" viewBox="6.011000156402588 30.363000869750977 87.25899505615234 43.13500213623047" enable-background="new 0 0 100 100" xml:space="preserve" height="47.19941063175279" width="95.481" class="icon-icon-0" data-fill-palette-color="accent" id="icon-0"><g fill="#000000" data-fill-palette-color="accent"><path d="M18.736 62.948A5.28 5.28 0 0 0 13.461 68.223C13.461 71.131 15.828 73.498 18.736 73.498S24.011 71.131 24.011 68.223A5.28 5.28 0 0 0 18.736 62.948M18.736 71.182A2.958 2.958 0 1 1 18.736 65.266 2.958 2.958 0 0 1 18.736 71.182" fill="#000000" data-fill-palette-color="accent"/><circle cx="18.736" cy="68.223" r="0.833" fill="#000000" data-fill-palette-color="accent"/><path d="M55.528 30.363C54.069 30.363 52.886 31.051 52.886 31.9H58.168C58.169 31.051 56.986 30.363 55.528 30.363" fill="#000000" data-fill-palette-color="accent"/><path d="M68.06 30.363C66.602 30.363 65.419 31.051 65.419 31.9H70.7C70.7 31.051 69.519 30.363 68.06 30.363" fill="#000000" data-fill-palette-color="accent"/><path d="M70.282 62.948A5.28 5.28 0 0 0 65.007 68.223 5.28 5.28 0 0 0 70.282 73.498 5.28 5.28 0 0 0 75.557 68.223 5.28 5.28 0 0 0 70.282 62.948M70.282 71.182A2.958 2.958 0 1 1 70.281 65.265 2.958 2.958 0 0 1 70.282 71.182" fill="#000000" data-fill-palette-color="accent"/><circle cx="70.282" cy="68.223" r="0.833" fill="#000000" data-fill-palette-color="accent"/><path d="M18.442 34.343H92.47C92.402 33.141 91.501 32.427 90.029 32.427H21.011C19.237 32.427 18.455 33.843 18.423 33.903A0.43 0.43 0 0 0 18.442 34.343" fill="#000000" data-fill-palette-color="accent"/><path d="M24.474 66.114L24.468 66.18 26.446 69.181C26.526 69.302 26.662 69.375 26.807 69.375H38.087V39.341H24.474zM26.389 40.817H36.16A0.46 0.46 0 0 1 36.62 41.277L36.623 48.344H25.929V41.277A0.46 0.46 0 0 1 26.389 40.817M25.929 50.865A0.431 0.431 0 1 1 26.794 50.865V52.737A0.433 0.433 0 0 1 25.929 52.737z" fill="#000000" data-fill-palette-color="accent"/><path d="M38.95 55.331H92.476V51.074A0.41 0.41 0 0 0 92.764 50.686V50.207A0.41 0.41 0 0 0 92.476 49.818V38.098A0.41 0.41 0 0 0 92.764 37.71V37.23A0.405 0.405 0 0 0 92.476 36.842V34.776H19.081L14.91 51.071 14.343 51.351V50.649A0.216 0.216 0 1 0 13.911 50.649V51.566C12.397 52.316 9.883 53.561 9.228 53.889 7.913 54.547 7.744 55.621 7.744 56.484V56.94A0.2 0.2 0 0 1 7.792 56.934H8.47A0.217 0.217 0 0 1 8.47 57.367H7.792A0.2 0.2 0 0 1 7.744 57.361V57.899L7.792 57.893H8.47A0.216 0.216 0 0 1 8.47 58.326H7.792A0.2 0.2 0 0 1 7.744 58.32V58.859A0.2 0.2 0 0 1 7.792 58.852H8.47A0.217 0.217 0 0 1 8.47 59.286H7.792A0.2 0.2 0 0 1 7.744 59.279V59.818L7.792 59.812H8.47A0.216 0.216 0 0 1 8.47 60.245H7.792A0.2 0.2 0 0 1 7.744 60.239V60.777L7.792 60.771H8.47A0.216 0.216 0 0 1 8.47 61.204H7.792A0.2 0.2 0 0 1 7.744 61.198V61.737A0.2 0.2 0 0 1 7.792 61.731H8.47A0.216 0.216 0 0 1 8.47 62.163H7.792A0.2 0.2 0 0 1 7.744 62.157V62.696A0.2 0.2 0 0 1 7.792 62.69H8.47A0.216 0.216 0 0 1 8.47 63.122H7.792A0.2 0.2 0 0 1 7.744 63.116V63.778A0.4 0.4 0 0 0 7.62 63.757H6.42A0.41 0.41 0 0 0 6.011 64.165V67.334C6.011 67.559 6.194 67.742 6.42 67.742H7.62A0.41 0.41 0 0 0 8.028 67.334V67.105H12.37A0.43 0.43 0 0 0 12.75 66.878L13.351 65.759A0.4 0.4 0 0 0 13.395 65.688C13.452 65.568 13.513 65.453 13.578 65.337L13.595 65.307A5.94 5.94 0 0 1 18.736 62.312 5.91 5.91 0 0 1 23.61 64.88V38.909C23.61 38.671 23.804 38.477 24.042 38.477H38.519C38.757 38.477 38.951 38.67 38.951 38.909zM10.363 62.942C9.978 62.942 9.667 62.178 9.667 61.237S9.979 59.532 10.363 59.532 11.059 60.296 11.059 61.237 10.748 62.942 10.363 62.942M11.155 58.382A0.195 0.195 0 0 1 10.959 58.577H9.863A0.196 0.196 0 0 1 9.667 58.382V57.943C9.667 57.836 9.755 57.748 9.863 57.748H10.96C11.068 57.748 11.156 57.836 11.156 57.943zM22.408 48.85C22.408 49.342 22.008 49.743 21.515 49.743H17.828A0.895 0.895 0 0 1 16.99 48.54L19.554 38.038A1.45 1.45 0 0 1 22.41 38.394z" fill="#000000" data-fill-palette-color="accent"/><path d="M92.86 66.04H92.476V64.051A0.41 0.41 0 0 0 92.764 63.662V63.183A0.41 0.41 0 0 0 92.476 62.794V56.194H38.95V69.376H63.334A0.43 0.43 0 0 0 63.767 68.944V68.223C63.767 64.512 66.689 61.493 70.283 61.493S76.799 64.513 76.799 68.233L76.813 68.945A0.433 0.433 0 0 0 77.245 69.37H91.614V69.617C91.614 69.843 91.798 70.024 92.022 70.024H92.862A0.406 0.406 0 0 0 93.27 69.617V66.448A0.41 0.41 0 0 0 92.86 66.04M87.075 64.552H77.784C77.665 64.552 77.567 64.454 77.567 64.335S77.665 64.119 77.784 64.119H87.075A0.216 0.216 0 0 1 87.075 64.552M87.075 62.967H77.784C77.665 62.967 77.567 62.87 77.567 62.751S77.665 62.534 77.784 62.534H87.075A0.216 0.216 0 0 1 87.075 62.967M87.075 61.382H77.784A0.217 0.217 0 0 1 77.567 61.166C77.567 61.046 77.665 60.95 77.784 60.95H87.075A0.216 0.216 0 1 1 87.075 61.382" fill="#000000" data-fill-palette-color="accent"/></g></svg></g></svg></g></svg></g></svg></g></svg></g><g/></svg></g><defs/></svg>